<?xml version="1.0" encoding="UTF-8" standalone="no"?><svg xmlns="http://www.w3.org/2000/svg" xmlns:xlink="http://www.w3.org/1999/xlink" contentScriptType="text/ecmascript" fill="#000000" width="506.9" zoomAndPan="magnify" contentStyleType="text/css" viewBox="-0.0 0.0 506.9 405.5" height="405.5" preserveAspectRatio="xMidYMid meet" version="1"><g id="change1_1"><path fill="#ffffff" stroke-miterlimit="10" d="M496.2,405H10.7c-5.6,0-10.2-4.6-10.2-10.2V11.2 C0.5,5.6,5.1,1,10.7,1h485.5c5.6,0,10.2,4.6,10.2,10.2v383.6C506.4,400.4,501.9,405,496.2,405z" stroke="#010101"/></g><g id="change2_1"><path fill="#2b9d85" stroke-miterlimit="10" d="M506.4,45.6H0.5V10.7c0-5.6,4.6-10.2,10.2-10.2 h485.5c5.6,0,10.2,4.6,10.2,10.2V45.6z" stroke="#010101"/></g><g><g><g id="change3_1"><path fill="#ffffff" d="M482.4,30.2c-0.3,0-0.6-0.1-0.8-0.4l-12-12c-0.5-0.5-0.5-1.2,0-1.7 c0.5-0.5,1.2-0.5,1.7,0l12,12c0.5,0.5,0.5,1.2,0,1.7C483,30.1,482.7,30.2,482.4,30.2z"/></g><g id="change3_2"><path fill="#ffffff" d="M470.4,30.2c-0.3,0-0.6-0.1-0.8-0.4c-0.5-0.5-0.5-1.2,0-1.7l12-12 c0.5-0.5,1.2-0.5,1.7,0c0.5,0.5,0.5,1.2,0,1.7l-12,12C471.1,30.1,470.7,30.2,470.4,30.2z"/></g></g></g></svg>